<svg xmlns="http://www.w3.org/2000/svg" viewBox="0 0 54 54"><circle cx="27" cy="27" r="25" fill="none" stroke="currentColor" stroke-miterlimit="10" stroke-width="4"/><path stroke="currentColor" fill="currentColor" stroke-miterlimit="10" stroke-width="2.5" d="M22.1 23v-1.3l6.6-.3v18.2c0 .8.4 1.2 1.3 1.2h1.8v1.3h-9.3v-1.3h1.7c1 0 1.6-.5 1.6-1.5V25c0-1.3-.8-2-2.3-2h-1.4Zm4.6-11.2c.5 0 1 .2 1.4.6.4.4.6 1 .6 1.5s-.2 1-.6 1.4c-.3.3-.8.5-1.4.5s-1-.2-1.4-.5c-.4-.4-.5-.9-.5-1.4a1.9 1.9 0 0 1 1.9-2Z"/></svg>