<svg xmlns="http://www.w3.org/2000/svg" viewBox="0 0 82.8 74.3"><g stroke="currentColor" stroke-miterlimit="10" stroke-width="4"><path stroke-linecap="round" d="M36.6 36.2v-1.3l6.5-.3v18.2c0 .8.4 1.2 1.3 1.2h1.9v1.3h-9.4V54h1.7c1 0 1.6-.5 1.6-1.5V38.1c0-1.3-.8-2-2.3-2h-1.3Z"/><path d="M41 25a2 2 0 0 1 2.1 2.1c0 .6-.2 1-.6 1.3-.3.4-.8.6-1.4.6s-1-.2-1.4-.6c-.4-.3-.5-.8-.5-1.3s.2-1 .5-1.5a2 2 0 0 1 1.4-.6Z"/></g><path fill="currentColor" stroke="currentColor" d="M41.4 6.7c1 0 2 .5 2.7 1.5l31.6 54.9a3 3 0 0 1-2.6 4.6H9.7A3 3 0 0 1 7.1 63L38.7 8.2a3 3 0 0 1 2.7-1.5m0-6.7A9.8 9.8 0 0 0 33 4.9L1.3 59.7a9.8 9.8 0 0 0 8.4 14.6h63.4a9.8 9.8 0 0 0 8.4-14.6L50 5A10 10 0 0 0 41.5.1Z"/></svg>